<svg xmlns="http://www.w3.org/2000/svg" viewBox="0 0 512 512"><path d="M449.7 411.6h62.1l-115-296.4h-65L217 411.6h58.5l27.8-75.8h119l27.4 75.8zm-88.6-239.9h3.8l43.9 122.2h-92.1l44.4-122.2zM1.8 112.8H290l-20 51.4H1.8v-51.4z"/><path d="M204.7 112.9h52.8v1.7c0 .9-.1 2-.2 3.4-.2 2.8-.6 6.7-1.3 11.6-1.4 9.7-4.2 23.3-9.6 39.8-10.9 32.9-32.4 77-74.5 123.9l-.7.7L64.7 395.6l-34.2-37.4 101.8-98.5C169 218.6 187 181 195.9 154.2c4.5-13.5 6.6-24.4 7.7-31.6.5-3.6.8-6.3.9-8 .1-.7.1-1.3.2-1.7v-.2.2z"/><path d="M129.6 87h51.2v25.7h-51.2zM98.4 271.8c-24.9-29.4-41.1-57.6-51.7-81.9h57c8.4 15.2 19.5 32 34.4 49.4l1.1 1.3.8 1.2c.1.1.2.3.4.5.5.6 1.4 1.8 2.7 3.4 2.7 3.2 7.3 8.1 14.2 14.4 11.2 10.1 34.2 26.6 59.9 41.1l-18.4 47c-36-17.7-60.3-35.9-75.7-49.9-8.6-7.8-14.8-14.4-19-19.3-2.1-2.5-3.7-4.5-4.8-6-.3-.4-.6-.9-.9-1.2z"/></svg>