<svg xmlns="http://www.w3.org/2000/svg" viewBox="0 0 512 512"><path d="M341.4 247.4c25.2-14.5 41.1-41.1 41.1-72.8 0-37.1-19.8-66.2-51.5-79.4-18.5-7.9-37.1-9.3-60.8-9.3H128.3c-6.6 0-11.9 5.3-11.9 11.9V123c0 6.6 5.3 13.2 11.9 13.2h25.2V377h-25.2c-6.6 0-11.9 5.3-11.9 11.9v25.2c0 6.6 5.3 11.9 11.9 11.9h148.2c18.5 0 34.5-1.3 51.5-5.3 38.4-11.9 67.5-47.6 67.5-93.9.1-38.5-19.7-68.9-54.1-79.4zM218.3 138.9h51.5c11.9 0 19.8 1.3 27.9 4 11.9 6.6 18.5 21.2 18.5 38.4 0 26.5-14.5 42.3-39.7 42.3h-58.2v-84.7zm86 231.5c-7.9 2.6-17.2 2.6-23.9 2.6h-62.1v-97.9h63.5c30.5 0 47.6 19.8 47.6 47.6 0 22.6-9.3 41.1-25.1 47.7z"/></svg>
