<svg xmlns="http://www.w3.org/2000/svg" viewBox="0 0 512 512"><path d="M379.1 344.3h121c5.4 0 9.6 4.3 9.6 10.7v20.3c0 6.4-4.3 10.7-9.6 10.7H339.5c-4.3 0-9.6-4.3-9.6-8.6l-1.1-16.1c0-97.4 129.5-112.4 129.5-170.2 0-23.6-17.1-39.6-42.8-39.6-19.3 0-35.3 11.8-47.1 27.8-3.2 4.3-9.6 5.4-13.9 2.1l-18.2-11.8c-5.4-3.2-6.4-9.6-3.2-13.9 17.7-29.8 49.9-48.1 84.6-48.2 51.4 0 87.8 33.2 87.8 80.3 1 87.9-118.9 104-126.4 156.5zm-264.4 12.8v18.2c0 6.4-4.3 10.7-9.6 10.7H11.9c-5.4 0-9.6-4.3-9.6-10.7v-18.2c0-5.4 4.3-9.6 9.6-9.6h22.5v-197H13c-5.4 0-9.6-5.4-9.6-10.7v-18.2c0-5.4 4.3-9.6 9.6-9.6h93.1c5.4 0 10.7 4.3 10.7 10.7v17.1c0 5.4-5.4 10.7-10.7 10.7H81.5v78.1H210v-78.1h-23.6c-5.4 0-10.7-5.4-10.7-10.7v-18.2c0-5.4 5.4-9.6 10.7-9.6h93.1c5.4 0 9.6 4.3 9.6 10.7v17.1c0 5.4-4.3 10.7-9.6 10.7H256v197h23.6c5.4 0 9.6 4.3 9.6 9.6v18.2c0 6.4-4.3 10.7-9.6 10.7h-93.1c-5.4 0-10.7-4.3-10.7-10.7v-18.2c0-5.4 5.4-9.6 10.7-9.6H210v-78.1H81.5v78.1h23.6c5.3 0 9.6 4.2 9.6 9.6z"/></svg>