<svg xmlns="http://www.w3.org/2000/svg" viewBox="0 0 512 512"><path d="M509.7 300.6c0 48.9-39.5 89.4-94.6 89.4-33.3 0-64.5-13.5-85.3-34.3-4.2-3.1-4.2-9.4-1-13.5l13.5-18.7c3.1-5.2 10.4-6.2 14.6-2.1 16.6 14.6 35.4 23.9 56.1 23.9 28.1 0 49.9-18.7 49.9-43.7 0-20.8-15.6-43.7-57.2-43.7h-14.6c-4.2 0-7.3-3.1-9.4-6.2l-6.2-13.5c-1-3.1-1-7.3 2.1-10.4l55.1-65.5 8.3-9.4h-94.6c-5.2 0-10.4-4.2-10.4-9.4v-21.8c0-5.2 5.2-10.4 10.4-10.4H493c6.2 0 10.4 5.2 10.4 10.4v16.6l-2.1 6.2-64.5 74.9c40.7 7.4 72.9 36.5 72.9 81.2zm-394.1 56.1v18.7c0 5.2-4.2 10.4-10.4 10.4H12.7c-5.2 0-10.4-5.2-10.4-10.4v-18.7c0-5.2 5.2-10.4 10.4-10.4h22.9V150.9H12.7c-5.2 0-10.4-4.2-10.4-10.4v-17.7c0-5.2 5.2-10.4 10.4-10.4h92.5c6.2 0 10.4 5.2 10.4 10.4v17.7c0 6.2-4.2 10.4-10.4 10.4H82.4v79h127.9v-79h-22.9c-6.2 0-10.4-4.2-10.4-10.4v-17.7c0-5.2 4.2-10.4 10.4-10.4h92.5c5.2 0 10.4 5.2 10.4 10.4v17.7c0 6.2-5.2 10.4-10.4 10.4H257v197.6h22.9c5.2 0 10.4 4.2 10.4 10.4v17.7c0 5.2-5.2 10.4-10.4 10.4h-92.5c-6.2 0-10.4-5.2-10.4-10.4v-18.7c0-5.2 4.2-9.4 10.4-9.4h22.9v-79H82.4v79h22.9c6.2 0 10.4 4.2 10.4 9.4v-1.2z"/></svg>