<svg xmlns="http://www.w3.org/2000/svg" viewBox="0 0 448 512"><path d="M25.6 96.6V75.3c0-2.9 2.4-5.3 5.3-5.3h386.2c2.9 0 5.3 2.4 5.3 5.3v21.3c0 2.9-2.4 5.3-5.3 5.3H30.9c-2.9 0-5.3-2.4-5.3-5.3zm147 118.7h244.5c2.9 0 5.3-2.4 5.3-5.3v-21.3c0-2.9-2.4-5.3-5.3-5.3H172.6c-2.9 0-5.3 2.4-5.3 5.3V210c0 2.9 2.4 5.3 5.3 5.3zM30.9 442h386.2c2.9 0 5.3-2.4 5.3-5.3v-21.3c0-2.9-2.4-5.3-5.3-5.3H30.9c-2.9 0-5.3 2.4-5.3 5.3v21.3c0 2.9 2.4 5.3 5.3 5.3zm141.7-113.4h244.5c2.9 0 5.3-2.4 5.3-5.3V302c0-2.9-2.4-5.3-5.3-5.3H172.6c-2.9 0-5.3 2.4-5.3 5.3v21.3c0 3 2.4 5.3 5.3 5.3zM25.6 341V171c0-12.6 15.3-18.9 24.2-10l85 85c5.5 5.5 5.5 14.5 0 20l-85 85c-8.9 8.9-24.2 2.7-24.2-10zm28.3-135.8v101.6l50.8-50.8-50.8-50.8z"/></svg>