<svg xmlns="http://www.w3.org/2000/svg" viewBox="0 0 512 512"><path d="M432.2 278.5H79.8c-6.5 0-11.7-5.3-11.7-11.7v-23.5c0-6.5 5.3-11.7 11.7-11.7h352.5c6.5 0 11.7 5.3 11.7 11.7v23.5c0 6.4-5.3 11.7-11.8 11.7zm-157.6 11.7c20 9.5 34.2 21.1 34.2 41.3 0 24.3-21.3 39.4-55.5 39.4-23.7 0-56.5-8.9-56.5-32.5v-1.2c0-6.5-5.3-11.7-11.7-11.7h-33.5c-6.5 0-11.7 5.3-11.7 11.7v14.1c0 49.1 57.1 74.8 113.4 74.8 65 0 119-33.4 119-98.7 0-14.6-2.7-26.7-7.4-37.2h-90.3zm-22.7-70.5c-23.8-9.9-41.7-21.3-41.7-43.8 0-24.9 22.7-34.8 47.7-34.8 31.3 0 47.7 12.2 47.7 24.2v1.5c0 6.5 5.3 11.7 11.7 11.7h33.5c6.5 0 11.7-5.3 11.7-11.7v-22.3c0-38.5-52.7-58.7-104.7-58.7-62.6 0-110.7 30.1-110.7 92.3 0 16.7 3.4 30.2 9.4 41.5h95.4z"/></svg>