<svg xmlns="http://www.w3.org/2000/svg" viewBox="0 0 448 512"><path d="M224.2 343.9c-60.9 0-104-34-104-100.6V128.4h-18.8c-5.9 0-10.6-4.8-10.6-10.6V96.6c0-5.9 4.8-10.6 10.6-10.6h91.3c5.9 0 10.6 4.8 10.6 10.6v21.3c0 5.9-4.8 10.6-10.6 10.6h-19.1v114.8c0 35.7 18.8 52.8 50.7 52.8 31.2 0 50.4-16.9 50.4-53.1V128.4h-18.8c-5.9 0-10.6-4.8-10.6-10.6V96.6c0-5.9 4.8-10.6 10.6-10.6h90.9c5.9 0 10.6 4.8 10.6 10.6v21.3c0 5.9-4.8 10.6-10.6 10.6H328v114.8c-.1 66-43.2 100.6-103.8 100.6zM85.8 383.6h276.4c5.9 0 10.6 4.8 10.6 10.6v21.3c0 5.9-4.8 10.6-10.6 10.6H85.8c-5.9 0-10.6-4.8-10.6-10.6v-21.3c0-5.9 4.7-10.6 10.6-10.6z"/></svg>