<svg xmlns="http://www.w3.org/2000/svg" viewBox="0 0 448 512"><path d="M280.7 75.3v21.3c0 2.9-2.4 5.3-5.3 5.3H30.9c-2.9 0-5.3-2.4-5.3-5.3V75.3c0-2.9 2.4-5.3 5.3-5.3h244.5c2.9 0 5.3 2.4 5.3 5.3zm-249.8 140h386.2c2.9 0 5.3-2.4 5.3-5.3v-21.3c0-2.9-2.4-5.3-5.3-5.3H30.9c-2.9 0-5.3 2.4-5.3 5.3V210c0 2.9 2.4 5.3 5.3 5.3zm0 226.7h386.2c2.9 0 5.3-2.4 5.3-5.3v-21.3c0-2.9-2.4-5.3-5.3-5.3H30.9c-2.9 0-5.3 2.4-5.3 5.3v21.3c0 2.9 2.4 5.3 5.3 5.3zm244.5-145.3H30.9c-2.9 0-5.3 2.4-5.3 5.3v21.3c0 2.9 2.4 5.3 5.3 5.3h244.5c2.9 0 5.3-2.4 5.3-5.3V302c0-2.9-2.4-5.3-5.3-5.3z"/></svg>