<svg xmlns="http://www.w3.org/2000/svg" viewBox="0 0 512 512"><path d="M32.4 155.9c0-5.7 3-8.7 8.7-8.7h15.4V99.9c0-4.3.2-8.7.2-8.7h-.3s-1.6 3.5-3.5 5.1l-1.4 1.3c-4.1 3.8-8.4 3.6-12.2-.5l-4.1-4.4c-4-4.1-3.8-8.4.3-12.4l19.7-18.4c3.3-3 6.3-4.3 10.8-4.3h9c5.7 0 8.7 3 8.7 8.7v80.9h15.5c5.7 0 8.7 3 8.7 8.7v6.3c0 5.7-3 8.7-8.7 8.7h-58c-5.7 0-8.7-3-8.7-8.7l-.1-6.3zm-1.5 144.8c0-41.2 48.2-48.5 48.2-64.6 0-7.8-6.2-11.1-12-11.1-5 0-9.2 2.7-11.9 5.5-3.9 3.7-8 5.3-12.2 1.9l-6.1-4.8c-4.4-3.4-5.5-7.3-2.2-11.5 5.5-7.2 16.2-16.7 34.8-16.7 18.2 0 38.1 10.4 38.1 34.2 0 34.8-45.1 41.5-46.5 55.8h39.6c5.6 0 8.6 3 8.6 8.6v6.2c0 5.6-3 8.6-8.6 8.6H40.1c-5.3 0-9.2-3-9.2-8.6v-3.5zm2.5 132.4l4.2-6.9c3-4.8 6.9-5.1 11.7-2.2 4.2 2.3 9.7 4.7 15.9 4.7 10.1 0 15.9-5 15.9-11.1 0-8.7-8.7-12.3-20.7-12.3h-.6c-5 0-7.5-1.6-9.7-5.9l-.8-1.6c-1.9-3.6-1.1-7.5 2-11.1l10.1-12.3c5.3-6.4 9.7-10.5 9.7-10.5v-.3s-3.6.8-10.6.8h-18c-5.6 0-8.6-3-8.6-8.6v-6.2c0-5.6 3-8.6 8.6-8.6h53.2c5.6 0 8.6 3 8.6 8.4v2.5c0 4.4-1.1 7.3-3.9 10.6L81.7 384c16.5 3.6 27 16.7 27 32.3 0 19-13.4 38.1-41.3 38.1-15.1 0-25.7-5.3-32-9.5-4.5-3.1-4.8-7.3-2-11.8zm447.7-308.2v-21.3c0-2.9-2.4-5.3-5.3-5.3H146.3c-2.9 0-5.3 2.4-5.3 5.3v21.3c0 2.9 2.4 5.3 5.3 5.3h329.5c2.9 0 5.3-2.4 5.3-5.3zm0 141.7v-21.3c0-2.9-2.4-5.3-5.3-5.3H146.3c-2.9 0-5.3 2.4-5.3 5.3v21.3c0 2.9 2.4 5.3 5.3 5.3h329.5c2.9 0 5.3-2.3 5.3-5.3zm0 141.8v-21.3c0-2.9-2.4-5.3-5.3-5.3H146.3c-2.9 0-5.3 2.4-5.3 5.3v21.3c0 2.9 2.4 5.3 5.3 5.3h329.5c2.9 0 5.3-2.4 5.3-5.3z"/></svg>