<?xml version="1.0" encoding="utf-8"?>
<!-- Generator: Adobe Illustrator 19.2.0, SVG Export Plug-In . SVG Version: 6.00 Build 0)  -->
<svg version="1.1" id="图层_1" xmlns="http://www.w3.org/2000/svg" xmlns:xlink="http://www.w3.org/1999/xlink" x="0px" y="0px"
	 viewBox="0 0 448 512" style="enable-background:new 0 0 448 512;" xml:space="preserve">
<path d="M25.6,96.6V75.3c0-2.9,2.4-5.3,5.3-5.3h386.2c2.9,0,5.3,2.4,5.3,5.3v21.3c0,2.9-2.4,5.3-5.3,5.3H30.9
	C28,101.9,25.6,99.5,25.6,96.6z M201,215.3h216.1c2.9,0,5.3-2.4,5.3-5.3v-21.3c0-2.9-2.4-5.3-5.3-5.3H201c-2.9,0-5.3,2.4-5.3,5.3
	v21.3C195.7,212.9,198,215.3,201,215.3z M30.9,442h386.2c2.9,0,5.3-2.4,5.3-5.3v-21.3c0-2.9-2.4-5.3-5.3-5.3H30.9
	c-2.9,0-5.3,2.4-5.3,5.3v21.3C25.6,439.6,28,442,30.9,442z M201,328.6h216.1c2.9,0,5.3-2.4,5.3-5.3v-21.3c0-2.9-2.4-5.3-5.3-5.3H201
	c-2.9,0-5.3,2.4-5.3,5.3v21.3C195.7,326.3,198,328.6,201,328.6z M139,171V341c0,12.6-15.3,18.9-24.2,10l-85-85
	c-5.5-5.5-5.5-14.5,0-20l85-85C123.6,152.1,139,158.3,139,171z M110.6,306.8V205.2L59.8,256L110.6,306.8z"/>
</svg>
