<svg xmlns="http://www.w3.org/2000/svg" viewBox="0 0 512 512"><path d="M485.4 122.5H135.7c-3.1 0-5.6-2.5-5.6-5.6V94.3c0-3.1 2.5-5.6 5.6-5.6h349.7c3.1 0 5.6 2.5 5.6 5.6v22.6c0 3.1-2.5 5.6-5.6 5.6zm5.6 144.8v-22.6c0-3.1-2.5-5.6-5.6-5.6H135.7c-3.1 0-5.6 2.5-5.6 5.6v22.6c0 3.1 2.5 5.6 5.6 5.6h349.7c3.1 0 5.6-2.5 5.6-5.6zm0 150.4v-22.6c0-3.1-2.5-5.6-5.6-5.6H135.7c-3.1 0-5.6 2.5-5.6 5.6v22.6c0 3.1 2.5 5.6 5.6 5.6h349.7c3.1 0 5.6-2.5 5.6-5.6zM54.8 71.7C36.1 71.7 21 86.9 21 105.6s15.2 33.8 33.8 33.8 33.8-15.2 33.8-33.8-15.1-33.9-33.8-33.9zm0 150.5C36.1 222.2 21 237.3 21 256s15.2 33.8 33.8 33.8 33.8-15.2 33.8-33.8-15.1-33.8-33.8-33.8zm0 150.4c-18.7 0-33.8 15.2-33.8 33.8 0 18.7 15.2 33.8 33.8 33.8s33.8-15.2 33.8-33.8c.1-18.7-15.1-33.8-33.8-33.8z"/></svg>