<svg xmlns="http://www.w3.org/2000/svg" viewBox="0 0 512 512"><path d="M116.5 357.5v19c0 5.3-4.2 9.5-10.6 9.5h-93c-5.3 0-10.6-4.2-10.6-9.5v-19c0-5.3 5.3-9.5 10.6-9.5h23.3V149.2H12.9c-5.3 0-10.6-4.2-10.6-10.6v-18c0-5.3 5.3-9.5 10.6-9.5h93c6.3 0 10.6 4.2 10.6 9.5v18c0 6.3-4.2 10.6-10.6 10.6H82.6v79.3h129v-79.3h-23.3c-5.3 0-10.6-4.2-10.6-10.6v-18c0-5.3 4.2-9.5 10.6-9.5h93c5.3 0 10.6 4.2 10.6 9.5v18c0 6.3-5.3 10.6-10.6 10.6H258v197.7h23.3c5.3 1.1 10.6 5.3 10.6 10.6v19c0 5.3-5.3 9.5-10.6 9.5h-93c-6.3 0-10.6-4.2-10.6-9.5v-19c0-5.3 4.2-9.5 10.6-9.5h23.3v-79.3h-129V348h23.3c6.3-.1 10.6 4.2 10.6 9.5zM441 111.2h-25.4l-7.4 2.1-58.1 57.1c-3.2 4.2-4.2 10.6 0 14.8l14.8 14.8c4.2 4.2 10.6 4.2 14.8 0l21.1-20.1 5.3-5.3v170.2h-48.6c-6.3 0-10.6 4.2-10.6 10.6v21.1c0 5.3 4.2 9.5 10.6 9.5h141.6c5.3 0 10.6-4.2 10.6-9.5v-21.1c0-6.3-5.3-10.6-10.6-10.6h-47.6v-223c.1-6.4-5.2-10.6-10.5-10.6z"/></svg>