<svg xmlns="http://www.w3.org/2000/svg" viewBox="0 0 512 512"><path d="M218.7 163.9c-3.6-3.6-3.6-9.5 0-13.2L282.4 87c39.4-39.4 103.1-39.4 142.5 0 39.4 39.4 39.4 103.1 0 142.5l-63.7 63.7c-3.6 3.6-9.5 3.6-13.2 0l-6.6-6.6c-3.6-3.6-3.6-9.5 0-13.2l63.7-63.7c28.5-28.5 28.5-74.6 0-103-28.5-28.5-74.6-28.5-103 0l-63.7 63.7c-3.6 3.6-9.5 3.6-13.2 0l-6.5-6.5zm-8.8 241.3c-28.4 28.4-74.6 28.4-103 0-28.5-28.5-28.5-74.6 0-103l63.7-63.7c3.6-3.6 3.6-9.5 0-13.2l-6.6-6.6c-3.6-3.6-9.5-3.6-13.2 0l-63.7 63.7c-39.4 39.4-39.4 103.1 0 142.5 39.3 39.3 103.2 39.3 142.5 0l63.7-63.7c3.6-3.6 3.6-9.5 0-13.2l-6.6-6.6c-3.6-3.6-9.5-3.6-13.2 0l-63.6 63.8zM66.9 60.3l-6.6 6.6c-3.6 3.6-3.6 9.5 0 13.2L432 451.7c3.6 3.6 9.5 3.6 13.2 0l6.6-6.6c3.6-3.6 3.6-9.5 0-13.2L80 60.3c-3.6-3.6-9.5-3.6-13.1 0z"/></svg>